<svg xmlns="http://www.w3.org/2000/svg" viewBox="0 0 394.45 341.61"><defs><style>.a,.k{fill:#00a39f;}.a{stroke:#000;stroke-width:16px;}.a,.j,.k,.l{stroke-miterlimit:10;}.b{writing-mode:tb;text-orientation:sideways-right;glyph-orientation-vertical:90deg;font-size:12px;fill:#e9f6f4;letter-spacing:-0.26em;}.b,.k{font-family:Verdana-Bold, Verdana;font-weight:700;}.c{letter-spacing:-0.05em;}.d{letter-spacing:-0.55em;}.e{letter-spacing:-0.26em;}.f{letter-spacing:-0.55em;}.g{letter-spacing:-0.05em;}.h{letter-spacing:-0.55em;}.i{letter-spacing:-0.05em;}.j,.l{fill:none;}.j{stroke:#030202;stroke-width:1.01px;}.k{font-size:113px;stroke:#f8fcff;}.l{stroke:#231f20;stroke-width:3px;}</style></defs><polygon class="a" points="291.22 8 103.23 8 9.24 170.8 103.23 333.61 291.22 333.61 385.22 170.8 291.22 8"/><text class="b" transform="translate(355.24 181.17) rotate(-90)"> <tspan class="c"><tspan x="27.46" y="-22.71">0</tspan><tspan x="16.06" y="-22.71">1</tspan><tspan x="4.66" y="-22.71">0</tspan><tspan class="d" x="-6.74" y="-22.71">1</tspan><tspan x="44.56" y="-37.11">L</tspan><tspan x="33.16" y="-37.11">o</tspan><tspan x="21.76" y="-37.11">r</tspan><tspan x="10.36" y="-37.11">0</tspan><tspan x="-1.04" y="-37.11">1</tspan><tspan x="-12.44" y="-37.11">0</tspan><tspan class="d" x="-23.84" y="-37.11">0</tspan><tspan class="e" x="-39.6" y="-28.8"> </tspan><tspan x="78.76" y="-51.51">e</tspan><tspan class="f" x="67.36" y="-51.51">m</tspan><tspan class="e" x="51.6" y="-43.2"> </tspan><tspan x="44.56" y="-51.51">i</tspan><tspan x="33.16" y="-51.51">p</tspan><tspan x="21.76" y="-51.51">s</tspan><tspan x="10.36" y="-51.51">u</tspan><tspan x="-1.04" y="-51.51">m</tspan><tspan x="-12.44" y="-51.51">1</tspan><tspan x="-23.84" y="-51.51">1</tspan><tspan x="-35.24" y="-51.51">1</tspan><tspan x="-46.64" y="-51.51">0</tspan><tspan class="d" x="-58.04" y="-51.51">0</tspan><tspan class="e" x="-73.8" y="-43.2"> </tspan><tspan x="95.86" y="-65.91">d</tspan><tspan x="84.46" y="-65.91">o</tspan><tspan x="73.06" y="-65.91">l</tspan><tspan x="61.66" y="-65.91">o</tspan><tspan class="f" x="50.26" y="-65.91">r</tspan><tspan class="e" x="34.5" y="-57.6"> </tspan><tspan x="27.46" y="-65.91">s</tspan><tspan x="16.06" y="-65.91">i</tspan><tspan class="d" x="4.66" y="-65.91">t</tspan><tspan class="e" x="-11.1" y="-57.6"> </tspan><tspan class="g" x="-18.14" y="-65.91">1</tspan><tspan class="g" x="-29.54" y="-65.91">1</tspan><tspan class="g" x="-40.94" y="-65.91">1</tspan><tspan class="g" x="-52.34" y="-65.91">0</tspan><tspan class="g" x="-63.74" y="-65.91">1</tspan><tspan class="d" x="-75.14" y="-65.91">1</tspan><tspan class="e" x="-90.9" y="-57.6"> </tspan><tspan x="124.36" y="-80.31">a</tspan><tspan x="112.96" y="-80.31">m</tspan><tspan x="101.56" y="-80.31">e</tspan><tspan x="90.16" y="-80.31">t</tspan><tspan class="f" x="78.76" y="-80.31">,</tspan><tspan class="e" x="63" y="-72"> </tspan><tspan x="55.96" y="-80.31">c</tspan><tspan x="44.56" y="-80.31">o</tspan><tspan x="33.16" y="-80.31">n</tspan><tspan x="21.76" y="-80.31">s</tspan><tspan x="10.36" y="-80.31">e</tspan><tspan x="-1.04" y="-80.31">c</tspan><tspan x="-12.44" y="-80.31">1</tspan><tspan x="-23.84" y="-80.31">1</tspan><tspan x="-35.24" y="-80.31">0</tspan><tspan x="-46.64" y="-80.31">1</tspan><tspan x="-58.04" y="-80.31">0</tspan><tspan x="-69.44" y="-80.31">1</tspan><tspan x="-80.84" y="-80.31">0</tspan><tspan x="-92.24" y="-80.31">0</tspan><tspan class="d" x="-103.64" y="-80.31">0</tspan><tspan class="e" x="-119.4" y="-72"> </tspan><tspan x="141.46" y="-94.71">t</tspan><tspan x="130.06" y="-94.71">e</tspan><tspan x="118.66" y="-94.71">t</tspan><tspan x="107.26" y="-94.71">u</tspan><tspan x="95.86" y="-94.71">e</tspan><tspan class="f" x="84.46" y="-94.71">r</tspan><tspan class="e" x="68.7" y="-86.4"> </tspan><tspan x="61.66" y="-94.71">a</tspan><tspan x="50.26" y="-94.71">d</tspan><tspan x="38.86" y="-94.71">i</tspan><tspan x="27.46" y="-94.71">0</tspan><tspan x="16.06" y="-94.71">0</tspan><tspan x="4.66" y="-94.71">0</tspan><tspan x="-6.74" y="-94.71">1</tspan><tspan x="-18.14" y="-94.71">1</tspan><tspan x="-29.54" y="-94.71">0</tspan><tspan x="-40.94" y="-94.71">1</tspan><tspan x="-52.34" y="-94.71">0</tspan><tspan x="-63.74" y="-94.71">1</tspan><tspan x="-75.14" y="-94.71">1</tspan><tspan x="-86.54" y="-94.71">1</tspan><tspan x="-97.94" y="-94.71">0</tspan><tspan x="-109.34" y="-94.71">0</tspan><tspan class="h" x="-120.74" y="-94.71">0</tspan><tspan class="e" x="-136.5" y="-86.4"> </tspan><tspan x="141.46" y="-109.11">p</tspan><tspan x="130.06" y="-109.11">i</tspan><tspan x="118.66" y="-109.11">s</tspan><tspan x="107.26" y="-109.11">c</tspan><tspan x="95.86" y="-109.11">i</tspan><tspan x="84.46" y="-109.11">n</tspan><tspan class="f" x="73.06" y="-109.11">g</tspan><tspan class="e" x="57.3" y="-100.8"> </tspan><tspan x="50.26" y="-109.11">0</tspan><tspan x="38.86" y="-109.11">0</tspan><tspan x="27.46" y="-109.11">1</tspan><tspan x="16.06" y="-109.11">1</tspan><tspan x="4.66" y="-109.11">1</tspan><tspan x="-6.74" y="-109.11">0</tspan><tspan x="-18.14" y="-109.11">1</tspan><tspan x="-29.54" y="-109.11">0</tspan><tspan x="-40.94" y="-109.11">1</tspan><tspan x="-52.34" y="-109.11">1</tspan><tspan x="-63.74" y="-109.11">1</tspan><tspan x="-75.14" y="-109.11">0</tspan><tspan x="-86.54" y="-109.11">1</tspan><tspan x="-97.94" y="-109.11">0</tspan><tspan x="-109.34" y="-109.11">0</tspan><tspan class="h" x="-120.74" y="-109.11">1</tspan><tspan class="e" x="-136.5" y="-100.8"> </tspan><tspan x="141.46" y="-123.51">e</tspan><tspan x="130.06" y="-123.51">l</tspan><tspan x="118.66" y="-123.51">i</tspan><tspan x="107.26" y="-123.51">t</tspan><tspan class="f" x="95.86" y="-123.51">,</tspan><tspan class="e" x="80.1" y="-115.2"> </tspan><tspan x="73.06" y="-123.51">s</tspan><tspan x="61.66" y="-123.51">e</tspan><tspan class="d" x="50.26" y="-123.51">d</tspan><tspan class="e" x="34.5" y="-115.2"> </tspan><tspan x="27.46" y="-123.51">d</tspan><tspan x="16.06" y="-123.51">i</tspan><tspan x="4.66" y="-123.51">a</tspan><tspan x="-6.74" y="-123.51">m</tspan><tspan x="-18.14" y="-123.51">0</tspan><tspan x="-29.54" y="-123.51">1</tspan><tspan x="-40.94" y="-123.51">0</tspan><tspan x="-52.34" y="-123.51">1</tspan><tspan x="-63.74" y="-123.51">1</tspan><tspan x="-75.14" y="-123.51">0</tspan><tspan x="-86.54" y="-123.51">0</tspan><tspan x="-97.94" y="-123.51">1</tspan><tspan x="-109.34" y="-123.51">0</tspan><tspan class="h" x="-120.74" y="-123.51">1</tspan><tspan class="e" x="-136.5" y="-115.2"> </tspan><tspan x="141.46" y="-137.91">n</tspan><tspan x="130.06" y="-137.91">o</tspan><tspan x="118.66" y="-137.91">n</tspan><tspan x="107.26" y="-137.91">u</tspan><tspan x="95.86" y="-137.91">m</tspan><tspan x="84.46" y="-137.91">m</tspan><tspan class="f" x="73.06" y="-137.91">y</tspan><tspan class="e" x="57.3" y="-129.6"> </tspan><tspan x="50.26" y="-137.91">n</tspan><tspan x="38.86" y="-137.91">i</tspan><tspan x="27.46" y="-137.91">b</tspan><tspan x="16.06" y="-137.91">h</tspan><tspan x="4.66" y="-137.91">0</tspan><tspan x="-6.74" y="-137.91">0</tspan><tspan x="-18.14" y="-137.91">1</tspan><tspan x="-29.54" y="-137.91">0</tspan><tspan x="-40.94" y="-137.91">1</tspan><tspan x="-52.34" y="-137.91">0</tspan><tspan x="-63.74" y="-137.91">0</tspan><tspan x="-75.14" y="-137.91">1</tspan><tspan x="-86.54" y="-137.91">0</tspan><tspan x="-97.94" y="-137.91">1</tspan><tspan x="-109.34" y="-137.91">0</tspan><tspan class="h" x="-120.74" y="-137.91">0</tspan><tspan class="e" x="-136.5" y="-129.6"> </tspan><tspan x="141.46" y="-152.31">e</tspan><tspan x="130.06" y="-152.31">u</tspan><tspan x="118.66" y="-152.31">i</tspan><tspan x="107.26" y="-152.31">s</tspan><tspan x="95.86" y="-152.31">m</tspan><tspan x="84.46" y="-152.31">0</tspan><tspan x="73.06" y="-152.31">0</tspan><tspan x="61.66" y="-152.31">0</tspan><tspan x="50.26" y="-152.31">1</tspan><tspan x="38.86" y="-152.31">0</tspan><tspan x="27.46" y="-152.31">1</tspan><tspan x="16.06" y="-152.31">0</tspan><tspan x="4.66" y="-152.31">1</tspan><tspan x="-6.74" y="-152.31">1</tspan><tspan x="-18.14" y="-152.31">1</tspan><tspan x="-29.54" y="-152.31">0</tspan><tspan x="-40.94" y="-152.31">1</tspan><tspan x="-52.34" y="-152.31">0</tspan><tspan x="-63.74" y="-152.31">1</tspan><tspan x="-75.14" y="-152.31">0</tspan><tspan x="-86.54" y="-152.31">0</tspan><tspan x="-97.94" y="-152.31">0</tspan><tspan x="-109.34" y="-152.31">0</tspan><tspan class="h" x="-120.74" y="-152.31">1</tspan><tspan class="e" x="-136.5" y="-144"> </tspan><tspan x="141.46" y="-166.71">o</tspan><tspan class="f" x="130.06" y="-166.71">d</tspan><tspan class="e" x="114.3" y="-158.4"> </tspan><tspan x="107.26" y="-166.71">t</tspan><tspan x="95.86" y="-166.71">i</tspan><tspan x="84.46" y="-166.71">n</tspan><tspan x="73.06" y="-166.71">c</tspan><tspan x="61.66" y="-166.71">i</tspan><tspan x="50.26" y="-166.71">d</tspan><tspan x="38.86" y="-166.71">u</tspan><tspan x="27.46" y="-166.71">n</tspan><tspan x="16.06" y="-166.71">t</tspan><tspan x="4.66" y="-166.71">0</tspan><tspan x="-6.74" y="-166.71">0</tspan><tspan x="-18.14" y="-166.71">1</tspan><tspan x="-29.54" y="-166.71">0</tspan><tspan x="-40.94" y="-166.71">1</tspan><tspan x="-52.34" y="-166.71">1</tspan><tspan x="-63.74" y="-166.71">0</tspan><tspan x="-75.14" y="-166.71">1</tspan><tspan x="-86.54" y="-166.71">1</tspan><tspan x="-97.94" y="-166.71">1</tspan><tspan x="-109.34" y="-166.71">0</tspan><tspan class="h" x="-120.74" y="-166.71">0</tspan><tspan class="e" x="-136.5" y="-158.4"> </tspan><tspan x="141.46" y="-181.11">u</tspan><tspan class="f" x="130.06" y="-181.11">t</tspan><tspan class="e" x="114.3" y="-172.8"> </tspan><tspan x="107.26" y="-181.11">l</tspan><tspan x="95.86" y="-181.11">a</tspan><tspan x="84.46" y="-181.11">o</tspan><tspan x="73.06" y="-181.11">r</tspan><tspan x="61.66" y="-181.11">e</tspan><tspan x="50.26" y="-181.11">e</tspan><tspan class="f" x="38.86" y="-181.11">t</tspan><tspan class="e" x="23.1" y="-172.8"> </tspan><tspan class="i" x="16.06" y="-181.11">d</tspan><tspan class="i" x="4.66" y="-181.11">o</tspan><tspan class="i" x="-6.74" y="-181.11">l</tspan><tspan class="i" x="-18.14" y="-181.11">o</tspan><tspan class="i" x="-29.54" y="-181.11">r</tspan><tspan class="i" x="-40.94" y="-181.11">e</tspan><tspan class="i" x="-52.34" y="-181.11">0</tspan><tspan class="i" x="-63.74" y="-181.11">0</tspan><tspan class="i" x="-75.14" y="-181.11">1</tspan><tspan class="i" x="-86.54" y="-181.11">0</tspan><tspan class="i" x="-97.94" y="-181.11">1</tspan><tspan class="i" x="-109.34" y="-181.11">1</tspan><tspan class="d" x="-120.74" y="-181.11">0</tspan><tspan class="e" x="-136.5" y="-172.8"> </tspan><tspan x="141.46" y="-195.51">m</tspan><tspan x="130.06" y="-195.51">a</tspan><tspan x="118.66" y="-195.51">g</tspan><tspan x="107.26" y="-195.51">n</tspan><tspan class="f" x="95.86" y="-195.51">a</tspan><tspan class="e" x="80.1" y="-187.2"> </tspan><tspan x="73.06" y="-195.51">a</tspan><tspan x="61.66" y="-195.51">l</tspan><tspan x="50.26" y="-195.51">i</tspan><tspan x="38.86" y="-195.51">q</tspan><tspan x="27.46" y="-195.51">u</tspan><tspan x="16.06" y="-195.51">a</tspan><tspan x="4.66" y="-195.51">0</tspan><tspan x="-6.74" y="-195.51">0</tspan><tspan x="-18.14" y="-195.51">1</tspan><tspan x="-29.54" y="-195.51">0</tspan><tspan x="-40.94" y="-195.51">1</tspan><tspan x="-52.34" y="-195.51">1</tspan><tspan x="-63.74" y="-195.51">0</tspan><tspan x="-75.14" y="-195.51">1</tspan><tspan x="-86.54" y="-195.51">0</tspan><tspan x="-97.94" y="-195.51">1</tspan><tspan x="-109.34" y="-195.51">0</tspan><tspan class="h" x="-120.74" y="-195.51">1</tspan><tspan class="e" x="-136.5" y="-187.2"> </tspan></tspan><tspan class="f"><tspan x="141.46" y="-209.91">m</tspan><tspan class="e" x="125.7" y="-201.6"> </tspan><tspan class="c" x="118.66" y="-209.91">e</tspan><tspan class="c" x="107.26" y="-209.91">r</tspan><tspan class="c" x="95.86" y="-209.91">a</tspan><tspan x="84.46" y="-209.91">t</tspan><tspan class="e" x="68.7" y="-201.6"> </tspan><tspan class="c" x="61.66" y="-209.91">v</tspan><tspan class="c" x="50.26" y="-209.91">o</tspan><tspan class="c" x="38.86" y="-209.91">l</tspan><tspan class="c" x="27.46" y="-209.91">u</tspan><tspan class="c" x="16.06" y="-209.91">t</tspan><tspan class="c" x="4.66" y="-209.91">p</tspan><tspan class="c" x="-6.74" y="-209.91">a</tspan><tspan class="c" x="-18.14" y="-209.91">t</tspan><tspan class="c" x="-29.54" y="-209.91">.</tspan><tspan class="c" x="-40.94" y="-209.91">0</tspan><tspan class="c" x="-52.34" y="-209.91">1</tspan><tspan class="c" x="-63.74" y="-209.91">0</tspan><tspan class="c" x="-75.14" y="-209.91">1</tspan><tspan class="c" x="-86.54" y="-209.91">1</tspan><tspan class="c" x="-97.94" y="-209.91">0</tspan><tspan class="c" x="-109.34" y="-209.91">1</tspan><tspan class="h" x="-120.74" y="-209.91">0</tspan><tspan class="e" x="-136.5" y="-201.6"> </tspan></tspan><tspan class="c"><tspan x="141.46" y="-224.31">U</tspan><tspan class="f" x="130.06" y="-224.31">t</tspan><tspan class="e" x="114.3" y="-216"> </tspan><tspan x="107.26" y="-224.31">w</tspan><tspan x="95.86" y="-224.31">i</tspan><tspan x="84.46" y="-224.31">s</tspan><tspan class="f" x="73.06" y="-224.31">i</tspan><tspan class="e" x="57.3" y="-216"> </tspan><tspan x="50.26" y="-224.31">0</tspan><tspan x="38.86" y="-224.31">1</tspan><tspan x="27.46" y="-224.31">0</tspan><tspan x="16.06" y="-224.31">1</tspan><tspan x="4.66" y="-224.31">1</tspan><tspan x="-6.74" y="-224.31">0</tspan><tspan x="-18.14" y="-224.31">1</tspan><tspan x="-29.54" y="-224.31">0</tspan><tspan x="-40.94" y="-224.31">1</tspan><tspan x="-52.34" y="-224.31">0</tspan><tspan x="-63.74" y="-224.31">1</tspan><tspan x="-75.14" y="-224.31">0</tspan><tspan x="-86.54" y="-224.31">0</tspan><tspan x="-97.94" y="-224.31">1</tspan><tspan x="-109.34" y="-224.31">1</tspan><tspan class="h" x="-120.74" y="-224.31">0</tspan><tspan class="e" x="-136.5" y="-216"> </tspan><tspan x="141.46" y="-238.71">e</tspan><tspan x="130.06" y="-238.71">n</tspan><tspan x="118.66" y="-238.71">i</tspan><tspan class="f" x="107.26" y="-238.71">m</tspan><tspan class="e" x="91.5" y="-230.4"> </tspan><tspan x="84.46" y="-238.71">a</tspan><tspan class="f" x="73.06" y="-238.71">d</tspan><tspan class="e" x="57.3" y="-230.4"> </tspan><tspan x="50.26" y="-238.71">m</tspan><tspan x="38.86" y="-238.71">i</tspan><tspan x="27.46" y="-238.71">n</tspan><tspan x="16.06" y="-238.71">i</tspan><tspan x="4.66" y="-238.71">m</tspan><tspan x="-6.74" y="-238.71">0</tspan><tspan x="-18.14" y="-238.71">1</tspan><tspan x="-29.54" y="-238.71">0</tspan><tspan x="-40.94" y="-238.71">1</tspan><tspan x="-52.34" y="-238.71">1</tspan><tspan x="-63.74" y="-238.71">0</tspan><tspan x="-75.14" y="-238.71">1</tspan><tspan x="-86.54" y="-238.71">0</tspan><tspan x="-97.94" y="-238.71">0</tspan><tspan x="-109.34" y="-238.71">1</tspan><tspan class="h" x="-120.74" y="-238.71">0</tspan><tspan class="e" x="-136.5" y="-230.4"> </tspan><tspan x="112.96" y="-253.11">v</tspan><tspan x="101.56" y="-253.11">e</tspan><tspan x="90.16" y="-253.11">n</tspan><tspan x="78.76" y="-253.11">i</tspan><tspan x="67.36" y="-253.11">a</tspan><tspan x="55.96" y="-253.11">m</tspan><tspan class="f" x="44.56" y="-253.11">,</tspan><tspan class="e" x="28.8" y="-244.8"> </tspan><tspan x="21.76" y="-253.11">q</tspan><tspan x="10.36" y="-253.11">u</tspan><tspan x="-1.04" y="-253.11">i</tspan><tspan x="-12.44" y="-253.11">s</tspan><tspan x="-23.84" y="-253.11">0</tspan><tspan x="-35.24" y="-253.11">1</tspan><tspan x="-46.64" y="-253.11">0</tspan><tspan x="-58.04" y="-253.11">1</tspan><tspan x="-69.44" y="-253.11">1</tspan><tspan x="-80.84" y="-253.11">0</tspan><tspan class="h" x="-92.24" y="-253.11">1</tspan><tspan class="e" x="-108" y="-244.8"> </tspan><tspan x="90.16" y="-267.51">n</tspan><tspan x="78.76" y="-267.51">o</tspan><tspan x="67.36" y="-267.51">s</tspan><tspan x="55.96" y="-267.51">t</tspan><tspan x="44.56" y="-267.51">r</tspan><tspan x="33.16" y="-267.51">u</tspan><tspan x="21.76" y="-267.51">d</tspan><tspan x="10.36" y="-267.51">0</tspan><tspan x="-1.04" y="-267.51">1</tspan><tspan x="-12.44" y="-267.51">0</tspan><tspan x="-23.84" y="-267.51">0</tspan><tspan x="-35.24" y="-267.51">1</tspan><tspan x="-46.64" y="-267.51">0</tspan><tspan x="-58.04" y="-267.51">1</tspan><tspan class="d" x="-69.44" y="-267.51">0</tspan><tspan class="e" x="-85.2" y="-259.2"> </tspan><tspan x="55.96" y="-281.91">e</tspan><tspan x="44.56" y="-281.91">x</tspan><tspan x="33.16" y="-281.91">e</tspan><tspan x="21.76" y="-281.91">0</tspan><tspan x="10.36" y="-281.91">1</tspan><tspan x="-1.04" y="-281.91">1</tspan><tspan x="-12.44" y="-281.91">1</tspan><tspan x="-23.84" y="-281.91">0</tspan><tspan class="h" x="-35.24" y="-281.91">1</tspan><tspan class="e" x="-51" y="-273.6"> </tspan><tspan x="38.86" y="-296.31">r</tspan><tspan x="27.46" y="-296.31">c</tspan><tspan x="16.06" y="-296.31">i</tspan><tspan x="4.66" y="-296.31">0</tspan><tspan x="-6.74" y="-296.31">1</tspan><tspan class="h" x="-18.14" y="-296.31">0</tspan><tspan class="e" x="-33.9" y="-288"> </tspan></tspan><tspan class="g"><tspan x="16.06" y="-310.71">t</tspan><tspan x="4.66" y="-310.71">e</tspan></tspan></text><polygon class="j" points="282.85 23.29 111.61 23.29 25.99 170.8 111.61 318.31 282.85 318.31 368.47 170.8 282.85 23.29"/><text class="k" transform="translate(54.27 212.77)">lexR</text><polygon class="l" points="277.45 32.58 117 32.58 36.77 170.8 117 309.02 277.45 309.02 357.68 170.8 277.45 32.58"/></svg>