<svg xmlns="http://www.w3.org/2000/svg" viewBox="0 0 341.61 394.45"><defs><style>.a,.e{fill:#00a39f;}.a{stroke:#000;stroke-width:16px;}.a,.b,.c,.e{stroke-miterlimit:10;}.b,.c{fill:none;}.b{stroke:#030202;stroke-width:1.01px;}.c{stroke:#231f20;stroke-width:3px;}.d{writing-mode:tb;text-orientation:upright;glyph-orientation-vertical:0deg;font-size:14px;fill:#fff7f6;font-family:Verdana;}.e{font-size:113px;stroke:#f8fcff;font-family:Verdana-Bold, Verdana;font-weight:700;}</style></defs><polygon class="a" points="170.8 9.24 8 103.23 8 291.22 170.8 385.22 333.61 291.22 333.61 103.23 170.8 9.24"/><polygon class="b" points="171.2 26.67 22.9 112.29 22.51 282.85 170.41 367.78 318.71 282.17 319.1 111.61 171.2 26.67"/><polygon class="c" points="171.17 37.41 32.22 117.64 31.85 277.45 170.44 357.04 309.39 276.82 309.76 117 171.17 37.41"/><text class="d" transform="translate(297.33 121.86)">Lorem<tspan x="0" y="70" xml:space="preserve">  </tspan><tspan x="0" y="79.84">00110</tspan><tspan x="0" y="149.84"> </tspan><tspan x="-16.8" y="-11.59">ipsum</tspan><tspan x="-16.8" y="58.41"> </tspan><tspan x="-16.8" y="63.33">0111011</tspan><tspan x="-16.8" y="161.33"> </tspan><tspan x="-33.6" y="-23.17">dolor111001011</tspan><tspan x="-33.6" y="172.83" xml:space="preserve">  </tspan><tspan x="-50.4" y="-28.14">sit</tspan><tspan x="-50.4" y="13.86"> </tspan><tspan x="-50.4" y="18.78">amet,</tspan><tspan x="-50.4" y="88.78"> </tspan><tspan x="-50.4" y="93.7">co0010</tspan><tspan x="-50.4" y="177.7"> </tspan><tspan x="-67.2" y="-37.27">nsfshktuer110010</tspan><tspan x="-67.2" y="186.73"> </tspan><tspan x="-84" y="-42.24">adifoej</tspan><tspan x="-84" y="55.76" xml:space="preserve">  </tspan><tspan x="-84" y="65.61">010111010</tspan><tspan x="-84" y="191.61"> </tspan><tspan x="-100.8" y="-53.82">ng</tspan><tspan x="-100.8" y="-25.82"> </tspan><tspan x="-100.8" y="-20.9">elkit01011001011</tspan><tspan x="-100.8" y="203.1"> </tspan><tspan x="-117.6" y="-65.79">lsed</tspan><tspan x="-117.6" y="-9.79"> </tspan><tspan x="-117.6" y="-4.87">dikam</tspan><tspan x="-117.6" y="65.13"> </tspan><tspan x="-117.6" y="70.05">nonum001</tspan><tspan x="-117.6" y="182.05"> </tspan><tspan x="-117.6" y="186.97">00</tspan><tspan x="-117.6" y="214.97"> </tspan><tspan x="-134.4" y="-65.36">my</tspan><tspan x="-134.4" y="-37.36"> </tspan><tspan x="-134.4" y="-32.44">nibh</tspan><tspan x="-134.4" y="23.56"> </tspan><tspan x="-134.4" y="28.49">euism001101</tspan><tspan x="-134.4" y="182.49"> </tspan><tspan x="-134.4" y="187.41">01</tspan><tspan x="-134.4" y="215.41"> </tspan><tspan x="-151.2" y="-58.25">od</tspan><tspan x="-151.2" y="-30.25"> </tspan><tspan x="-151.2" y="-25.33">tincidunt</tspan><tspan x="-151.2" y="100.67"> </tspan><tspan x="-151.2" y="105.59">001010</tspan><tspan x="-151.2" y="189.59"> </tspan><tspan x="-151.2" y="194.51">1</tspan><tspan x="-151.2" y="208.51"> </tspan><tspan x="-168" y="-53.23">uthjfdkofet</tspan><tspan x="-168" y="100.77"> </tspan><tspan x="-168" y="105.69">0010001</tspan><tspan x="-168" y="203.69"> </tspan><tspan x="-184.8" y="-44.05">dovnle</tspan><tspan x="-184.8" y="39.95"> </tspan><tspan x="-184.8" y="44.88">magn</tspan><tspan x="-184.8" y="100.88"> </tspan><tspan x="-184.8" y="105.8">0011</tspan><tspan x="-184.8" y="161.8"> </tspan><tspan x="-184.8" y="166.72">00</tspan><tspan x="-184.8" y="194.72"> </tspan><tspan x="-201.6" y="-32.02">aliquam</tspan><tspan x="-201.6" y="65.98"> </tspan><tspan x="-201.6" y="70.9">11011010</tspan><tspan x="-201.6" y="182.9"> </tspan><tspan x="-218.4" y="-24.92">erat</tspan><tspan x="-218.4" y="31.08"> </tspan><tspan x="-218.4" y="36">volutpat00</tspan><tspan x="-218.4" y="176" xml:space="preserve">  </tspan><tspan x="-235.2" y="-10.82">Ut</tspan><tspan x="-235.2" y="17.18"> </tspan><tspan x="-235.2" y="22.11">0001111011</tspan><tspan x="-235.2" y="162.11"> </tspan><tspan x="-252" y="-3.71">wisi</tspan><tspan x="-252" y="52.29"> </tspan><tspan x="-252" y="57.21">0100100</tspan></text><text class="e" transform="translate(26.84 239.2)">lexR</text></svg>