<svg xmlns="http://www.w3.org/2000/svg" viewBox="0 0 341.61 394.45"><defs><style>.a,.e{fill:#00a39f;}.a{stroke:#000;stroke-width:16px;}.a,.b,.c,.e{stroke-miterlimit:10;}.b,.c{fill:none;}.b{stroke:#030202;stroke-width:1.01px;}.c{stroke:#231f20;stroke-width:3px;}.d{writing-mode:tb;text-orientation:upright;glyph-orientation-vertical:0deg;font-size:14px;fill:#fff7f6;font-family:Verdana;}.e{font-size:113px;stroke:#f8fcff;font-family:Verdana-Bold, Verdana;font-weight:700;}</style></defs><polygon class="a" points="170.8 9.24 8 103.23 8 291.22 170.8 385.22 333.61 291.22 333.61 103.23 170.8 9.24"/><polygon class="b" points="171.2 26.67 22.9 112.29 22.51 282.85 170.41 367.78 318.71 282.17 319.1 111.61 171.2 26.67"/><polygon class="c" points="171.17 37.41 32.22 117.64 31.85 277.45 170.44 357.04 309.39 276.82 309.76 117 171.17 37.41"/><text class="d" transform="translate(302.94 121.88)">Lorem<tspan x="0" y="70" xml:space="preserve">  </tspan><tspan x="0" y="79.84">00110</tspan><tspan x="0" y="149.84"> </tspan><tspan x="-16.8" y="-11.59">ipsum</tspan><tspan x="-16.8" y="58.41"> </tspan><tspan x="-16.8" y="63.34">0111011</tspan><tspan x="-16.8" y="161.34"> </tspan><tspan x="-33.6" y="-23.17">dolor111001011</tspan><tspan x="-33.6" y="172.83" xml:space="preserve">  </tspan><tspan x="-50.4" y="-28.14">sit</tspan><tspan x="-50.4" y="13.86"> </tspan><tspan x="-50.4" y="18.78">amet,</tspan><tspan x="-50.4" y="88.78"> </tspan><tspan x="-50.4" y="93.7">co0010</tspan><tspan x="-50.4" y="177.7"> </tspan><tspan x="-67.2" y="-37.27">nsfshktuer110010</tspan><tspan x="-67.2" y="186.73"> </tspan><tspan x="-84" y="-42.24">adifoej</tspan><tspan x="-84" y="55.76" xml:space="preserve">  </tspan><tspan x="-84" y="65.61">010111010</tspan><tspan x="-84" y="191.61"> </tspan><tspan x="-100.8" y="-53.82">ng</tspan><tspan x="-100.8" y="-25.82"> </tspan><tspan x="-100.8" y="-20.9">elkit01011001011</tspan><tspan x="-100.8" y="203.1"> </tspan><tspan x="-117.6" y="-65.79">lsed</tspan><tspan x="-117.6" y="-9.79"> </tspan><tspan x="-117.6" y="-4.87">dikam</tspan><tspan x="-117.6" y="65.13"> </tspan><tspan x="-117.6" y="70.05">nonum001</tspan><tspan x="-117.6" y="182.05"> </tspan><tspan x="-117.6" y="186.98">00</tspan><tspan x="-117.6" y="214.98"> </tspan><tspan x="-134.4" y="-65.41">my</tspan><tspan x="-134.4" y="-37.41"> </tspan><tspan x="-134.4" y="-32.49">nibh</tspan><tspan x="-134.4" y="23.51"> </tspan><tspan x="-134.4" y="28.43">euism001101</tspan><tspan x="-134.4" y="182.43"> </tspan><tspan x="-134.4" y="187.35">01</tspan><tspan x="-134.4" y="215.35"> </tspan><tspan x="-151.2" y="-58.31">od</tspan><tspan x="-151.2" y="-30.31"> </tspan><tspan x="-151.2" y="-25.39">tincidunt</tspan><tspan x="-151.2" y="100.61"> </tspan><tspan x="-151.2" y="105.53">001010</tspan><tspan x="-151.2" y="189.53"> </tspan><tspan x="-151.2" y="194.45">1</tspan><tspan x="-151.2" y="208.45"> </tspan><tspan x="-168" y="-60.29">uthjfdkofet</tspan><tspan x="-168" y="93.71"> </tspan><tspan x="-168" y="98.63">00110001</tspan><tspan x="-168" y="210.63"> </tspan><tspan x="-184.8" y="-51.1">dovnle</tspan><tspan x="-184.8" y="32.9"> </tspan><tspan x="-184.8" y="37.82">magna</tspan><tspan x="-184.8" y="107.82"> </tspan><tspan x="-184.8" y="112.74">0011</tspan><tspan x="-184.8" y="168.74"> </tspan><tspan x="-184.8" y="173.66">00</tspan><tspan x="-184.8" y="201.66"> </tspan><tspan x="-201.6" y="-39.08">aliquam</tspan><tspan x="-201.6" y="58.92"> </tspan><tspan x="-201.6" y="63.84">111011010</tspan><tspan x="-201.6" y="189.84"> </tspan><tspan x="-218.4" y="-24.98">erat</tspan><tspan x="-218.4" y="31.02"> </tspan><tspan x="-218.4" y="35.94">volutpat00</tspan><tspan x="-218.4" y="175.94"> </tspan><tspan x="-235.2" y="-20.33">.</tspan><tspan x="-235.2" y="-6.33"> </tspan><tspan x="-235.2" y="-1.41">Ut</tspan><tspan x="-235.2" y="26.59"> </tspan><tspan x="-235.2" y="31.51">0001111011</tspan><tspan x="-235.2" y="171.51"> </tspan><tspan x="-252" y="-3.77">wisi</tspan><tspan x="-252" y="52.23"> </tspan><tspan x="-252" y="57.15">0100100</tspan></text><text class="e" transform="translate(27.84 239.2)">lexR</text></svg>